# xmcd CD database file
#
# Track frame offsets:
#	150
#	30515
#	72205
#	99160
#	145525
#	169362
#	211130
#	231735
#	271682
#
# Disc length: 3820 seconds
#
# Revision: 0
# Processed by: cddbd v1.5.1PL0 Copyright (c) Steve Scherf et al.
# Submitted via: CDex 1.51
#
DISCID=750eea09
DTITLE=Andy Vance - Digital Flicks
DYEAR=2002
DGENRE=Jazz
TTITLE0=Distant Pictures
TTITLE1=Tenor Sadness
TTITLE2=Digital Flicks
TTITLE3=A Psalm for a Searching Soul
TTITLE4=Branch Stacking
TTITLE5=Carmen
TTITLE6=Chasing the Barron
TTITLE7=Grey Days
TTITLE8=The Sweetener
EXTD=YEAR: 2002
EXTT0=
EXTT1=
EXTT2=
EXTT3=
EXTT4=
EXTT5=
EXTT6=
EXTT7=
EXTT8=
PLAYORDER=
